<svg xmlns="http://www.w3.org/2000/svg" width="1200" height="900" viewBox="0 0 1200 900">
  <defs>
    <linearGradient id="g" x1="0" x2="1" y1="0" y2="1">
      <stop offset="0" stop-color="#7ce7d3" stop-opacity="0.95"/>
      <stop offset="1" stop-color="#8ea7ff" stop-opacity="0.95"/>
    </linearGradient>
    <radialGradient id="r" cx="50%" cy="35%" r="70%">
      <stop offset="0" stop-color="#ffffff" stop-opacity="0.16"/>
      <stop offset="1" stop-color="#071018" stop-opacity="0"/>
    </radialGradient>
  </defs>
  <rect width="1200" height="900" fill="#071018"/>
  <rect width="1200" height="900" fill="url(#r)"/>
  <g fill="none" stroke="url(#g)" stroke-linecap="round" stroke-linejoin="round">
    <path d="M170 510 C260 210 460 190 570 430 C670 650 850 700 1010 450" stroke-width="12" opacity="0.95"/>
    <path d="M220 610 C360 310 530 290 620 510 C710 720 880 760 1030 540" stroke-width="5" opacity="0.45"/>
    <path d="M250 390 C420 140 610 180 670 390 C730 600 910 640 1050 340" stroke-width="5" opacity="0.35"/>
  </g>
  <g fill="#ffffff" opacity="0.65">
    <circle cx="570" cy="430" r="11"/>
    <circle cx="1010" cy="450" r="8"/>
    <circle cx="170" cy="510" r="8"/>
  </g>
  <text x="90" y="120" fill="#f4f7fb" font-family="Inter, Arial, sans-serif" font-size="58" font-weight="800">Phase space / experiments / machines</text>
  <text x="92" y="178" fill="#a9b4c8" font-family="Inter, Arial, sans-serif" font-size="28">Replace this SVG with a research image, portrait, animation still, or CAD render.</text>
</svg>
